<svg width="25" height="25" viewBox="0 0 25 25" fill="none" xmlns="http://www.w3.org/2000/svg">
<g clip-path="url(#clip0_4795_7612)">
<path d="M25 12.5006C25 5.59649 19.4035 0.000488281 12.5002 0.000488281C5.5965 0.000488281 0 5.59649 0 12.5006C0 19.4037 5.5965 25.0002 12.5002 25.0002C19.4035 25.0002 25 19.4037 25 12.5006Z" fill="#47A76A"/>
<path d="M6.96387 8.74683C6.96387 8.04569 7.18895 7.33523 7.63921 6.6156C8.08932 5.89597 8.74636 5.29999 9.6099 4.82756C10.4735 4.35528 11.481 4.11902 12.6324 4.11902C13.7025 4.11902 14.6474 4.31659 15.4667 4.71132C16.2859 5.10625 16.9187 5.64323 17.3654 6.3222C17.8119 7.00137 18.0352 7.73934 18.0352 8.53646C18.0352 9.16388 17.9079 9.71386 17.6532 10.1861C17.3985 10.6585 17.0958 11.0663 16.7453 11.4094C16.3947 11.7527 15.7655 12.3303 14.8577 13.1422C14.6067 13.371 14.4054 13.5722 14.2543 13.7456C14.1029 13.9191 13.9903 14.0777 13.9166 14.2216C13.8427 14.3656 13.7854 14.5095 13.745 14.6534C13.7043 14.7973 13.6434 15.0502 13.5623 15.4118C13.422 16.1795 12.9828 16.5632 12.2448 16.5632C11.861 16.5632 11.538 16.4378 11.2761 16.1868C11.014 15.9359 10.8831 15.5632 10.8831 15.0686C10.8831 14.4486 10.9789 13.9116 11.1709 13.4577C11.3628 13.0037 11.6174 12.6052 11.9349 12.262C12.2521 11.9188 12.6803 11.5111 13.2191 11.0386C13.6914 10.6254 14.0329 10.3135 14.2433 10.1031C14.4536 9.89273 14.6307 9.65853 14.7747 9.40005C14.9186 9.14176 14.9906 8.86136 14.9906 8.55863C14.9906 7.9682 14.7709 7.47002 14.3318 7.064C13.8926 6.65818 13.3261 6.45507 12.6324 6.45507C11.8203 6.45507 11.2225 6.65989 10.8388 7.06954C10.4549 7.47919 10.1302 8.08257 9.86451 8.8797C9.61353 9.71386 9.13742 10.1308 8.43628 10.1308C8.0228 10.1308 7.67407 9.98509 7.39004 9.69345C7.10591 9.40191 6.96387 9.08639 6.96387 8.74683ZM12.3667 20.8811C11.9164 20.8811 11.5234 20.7352 11.1876 20.4437C10.8516 20.1523 10.6838 19.7445 10.6838 19.2204C10.6838 18.7553 10.846 18.3642 11.1709 18.0468C11.4956 17.7295 11.8942 17.5707 12.3666 17.5707C12.8317 17.5707 13.2228 17.7295 13.5402 18.0468C13.8574 18.3642 14.0163 18.7553 14.0163 19.2204C14.0163 19.7371 13.8502 20.143 13.518 20.4382C13.1859 20.7334 12.8021 20.8811 12.3667 20.8811Z" fill="white"/>
</g>
<defs>
<clipPath id="clip0_4795_7612">
<rect width="25" height="25" fill="white"/>
</clipPath>
</defs>
</svg>
