<svg width="182" height="75" viewBox="0 0 182 75" fill="none" xmlns="http://www.w3.org/2000/svg">
<path fill-rule="evenodd" clip-rule="evenodd" d="M146.233 0.677709C149.643 0.602578 153.05 0.67788 156.452 0.903612C158.255 2.55309 158.904 4.5862 158.399 7.00301C164.619 6.73563 170.783 7.11217 176.891 8.13253C178.753 9.62697 179.321 11.5095 178.594 13.7801C176.808 15.108 174.943 16.3128 172.998 17.3946C173.23 17.8363 173.554 18.2128 173.971 18.5241C175.937 18.6025 177.884 18.8284 179.81 19.2018C178.864 20.006 178.216 20.985 177.864 22.1385C178.573 23.8339 179.466 25.4152 180.54 26.8825C181.038 28.8848 181.281 30.9179 181.27 32.9819C179.971 41.7234 179.241 50.5337 179.08 59.4126C178.402 63.2666 176.699 66.6551 173.971 69.5783C161.346 71.2527 148.693 72.5331 136.014 73.4187C126.733 72.4053 117.405 71.9535 108.032 72.0632C98.6939 72.0732 89.3671 72.3745 80.051 72.9669C77.9425 72.8164 75.8334 72.6655 73.7248 72.5151C74.9716 71.9995 76.2689 71.6232 77.6179 71.3855C64.2039 71.8572 50.8215 72.8358 37.4708 74.3223C25.9348 72.7536 14.3368 72.1514 2.6767 72.5151C2.6767 71.0092 2.6767 69.5029 2.6767 67.997C3.24851 68.0959 3.73514 67.9455 4.13659 67.5452C1.04247 65.1086 -0.0930009 62.0214 0.730175 58.2831C0.959159 54.2842 1.28358 50.2934 1.70344 46.3102C1.28323 41.4937 1.20213 36.6745 1.46012 31.8524C2.22031 30.7422 2.70694 29.5373 2.92001 28.2379C3.03532 24.2365 3.27864 20.2455 3.64996 16.2651C2.92652 14.9267 2.43989 13.496 2.19007 11.9729C2.22405 11.3984 2.38626 10.8712 2.6767 10.3916C5.7907 8.79592 9.03492 7.44049 12.4093 6.3253C19.7241 6.19269 27.0236 6.49387 34.3077 7.22891C46.6436 7.48427 58.9716 7.48427 71.2917 7.22891C66.2215 8.09489 61.1926 9.14914 56.2061 10.3916C86.2794 7.29777 116.289 4.05983 146.233 0.677709ZM12.896 15.5873C14.3648 15.513 15.8247 15.5882 17.2756 15.8132C15.7346 17.244 14.1937 18.6747 12.6526 20.1054C12.7505 18.6248 12.8317 17.1187 12.896 15.5873ZM36.2542 15.5873C37.9961 15.7074 38.1583 16.3098 36.7409 17.3946C36.2889 16.8575 36.1267 16.255 36.2542 15.5873ZM19.2222 19.2018C23.8641 18.9169 25.8917 20.8748 25.305 25.0753C22.5475 28.0874 19.7899 28.0874 17.0323 25.0753C16.7079 23.8705 16.7079 22.6657 17.0323 21.4608C17.8631 20.7662 18.5931 20.0132 19.2222 19.2018ZM37.2275 19.2018C41.5958 19.1155 43.4612 21.0733 42.8238 25.0753C40.2756 28.0776 37.6802 28.0776 35.0377 25.0753C34.7132 23.8705 34.7132 22.6657 35.0377 21.4608C35.8685 20.7662 36.5984 20.0132 37.2275 19.2018ZM16.789 28.6898C18.3586 28.6493 19.8185 28.9505 21.1687 29.5934C22.5238 28.8753 23.9837 28.6494 25.5484 28.9157C26.1161 29.744 26.6838 30.5723 27.2516 31.4006C28.4097 35.266 29.0586 39.1817 29.1981 43.1476C28.7482 43.3945 28.3426 43.6957 27.9815 44.0512C28.7948 45.797 29.0381 47.6042 28.7115 49.4729C27.224 49.9026 25.683 50.053 24.0885 49.9247C24.1673 52.6604 23.924 55.3712 23.3585 58.0572C21.7364 59.2622 20.1143 59.2622 18.4922 58.0572C18.2491 55.3504 18.168 52.6396 18.2489 49.9247C16.7005 50.5238 15.0784 50.7497 13.3826 50.6024C13.2955 48.286 13.6199 45.952 14.3558 43.5994C13.1647 43.787 12.5158 43.3352 12.4093 42.244C13.5329 38.5236 14.425 34.7585 15.0858 30.9488C15.5711 30.1251 16.1388 29.3721 16.789 28.6898ZM32.8478 28.6898C35.1761 28.3912 37.2848 28.843 39.174 30.0452C40.8626 28.7376 42.8092 28.3611 45.0136 28.9157C45.5982 29.3234 46.0038 29.8505 46.2302 30.497C46.5641 33.829 46.4019 37.1423 45.7435 40.4367C45.0947 41.0391 44.4459 41.6416 43.797 42.244C43.2258 47.6914 42.4959 53.1131 41.6072 58.509C40.7961 58.6595 39.9851 58.8104 39.174 58.9608C37.9519 59.0566 36.8975 58.7553 36.0109 58.0572C35.496 52.772 34.8471 47.5007 34.0644 42.244C33.2306 41.6213 32.5818 40.8683 32.1179 39.9849C31.6023 36.8314 31.4401 33.6687 31.6312 30.497C31.9535 29.8265 32.359 29.2242 32.8478 28.6898ZM52.3131 33.2078C55.8786 32.6789 57.4198 34.0343 56.9361 37.2741C54.9895 39.6837 53.043 39.6837 51.0965 37.2741C50.5743 35.6477 50.9797 34.2923 52.3131 33.2078ZM67.8853 33.2078C70.4805 33.2078 73.0762 33.2078 75.6714 33.2078C75.6714 33.9609 75.6714 34.7138 75.6714 35.4669C74.7142 35.3587 73.8217 35.5093 72.9949 35.9187C72.7516 38.7762 72.6708 41.6376 72.7516 44.503C73.7248 44.503 74.6981 44.503 75.6714 44.503C75.8358 46.0057 75.1059 46.7589 73.4815 46.762C71.5014 46.5253 69.5549 46.2244 67.6419 45.8584C67.3174 45.5571 67.3174 45.2562 67.6419 44.9548C68.5627 44.6702 69.3739 44.2184 70.0751 43.5994C70.3179 40.8927 70.3992 38.1819 70.3184 35.4669C69.3452 35.4669 68.3719 35.4669 67.3986 35.4669C67.3334 34.6575 67.4955 33.9044 67.8853 33.2078ZM79.5644 33.2078C82.8278 32.7142 85.6663 33.4673 88.0805 35.4669C88.7325 39.6057 86.7052 41.7142 81.9976 41.7922C81.9976 43.2982 81.9976 44.8042 81.9976 46.3102C81.1975 46.4069 80.4676 46.256 79.8077 45.8584C79.7537 41.5772 79.6724 37.3603 79.5644 33.2078ZM100.003 33.2078C100.646 33.131 101.214 33.2817 101.706 33.6596C102.031 37.8765 102.031 42.0934 101.706 46.3102C101.046 46.7078 100.316 46.8587 99.5163 46.762C99.5971 44.7984 99.5158 42.8406 99.273 40.8885C98.4618 41.6416 97.651 42.3946 96.8398 43.1476C96.0198 42.462 95.2899 41.709 94.65 40.8885C94.2485 42.5252 94.0052 44.1818 93.92 45.8584C93.4334 46.4607 92.9468 46.4607 92.4601 45.8584C92.1356 43.5994 92.1356 41.3404 92.4601 39.0813C94.066 38.152 93.9847 37.7001 92.2168 37.7259C92.0241 36.3785 92.3487 35.1737 93.1901 34.1114C94.7342 35.4683 95.7882 37.1249 96.3532 39.0813C96.7026 39.5108 97.1079 39.5861 97.5698 39.3072C98.2437 37.2014 99.055 35.1683 100.003 33.2078ZM109.736 33.2078C110.655 33.1159 111.385 33.4171 111.925 34.1114C113.335 38.1674 114.713 42.2337 116.062 46.3102C115.139 46.7467 114.166 46.8971 113.142 46.762C112.962 45.0756 112.637 43.419 112.169 41.7922C110.989 41.6532 109.854 41.8038 108.762 42.244C108.394 43.8149 107.908 45.3208 107.302 46.762C106.654 46.762 106.005 46.762 105.356 46.762C106.087 41.9868 107.547 37.4687 109.736 33.2078ZM119.468 33.2078C121.421 33.1331 123.368 33.2084 125.308 33.4337C128.201 35.5962 128.525 38.0811 126.281 40.8885C126.954 42.0081 127.441 43.2129 127.741 44.503C127.719 45.7179 127.07 46.3206 125.794 46.3102C125.908 43.3732 124.448 41.7166 121.415 41.3404C121.415 42.997 121.415 44.6536 121.415 46.3102C120.771 46.387 120.203 46.2366 119.711 45.8584C119.687 41.5779 119.606 37.3611 119.468 33.2078ZM132.607 33.2078C135.202 33.2078 137.798 33.2078 140.393 33.2078C140.393 33.9609 140.393 34.7138 140.393 35.4669C139.278 35.351 138.223 35.5016 137.23 35.9187C136.987 38.7762 136.906 41.6376 136.987 44.503C137.96 44.503 138.933 44.503 139.907 44.503C140.04 45.3845 139.715 46.0622 138.933 46.5361C137.167 46.4864 135.383 46.4114 133.58 46.3102C133.657 46.9306 133.576 47.5333 133.337 48.1175C133.116 47.1976 132.711 46.369 132.121 45.6325C133.066 44.8795 133.958 44.0512 134.797 43.1476C135.122 40.5873 135.122 38.0271 134.797 35.4669C133.97 35.0575 133.078 34.9069 132.121 35.0151C132.088 34.356 132.25 33.7536 132.607 33.2078ZM144.773 33.2078C145.942 33.1595 146.834 33.6113 147.449 34.5632C148.427 36.6871 149.4 38.7956 150.369 40.8885C150.521 39.9596 150.764 39.056 151.099 38.1777C150.649 36.554 150.487 34.8974 150.613 33.2078C151.261 33.2078 151.91 33.2078 152.559 33.2078C152.64 37.5779 152.559 41.9454 152.316 46.3102C151.226 46.9288 150.334 46.7029 149.639 45.6325C149.862 45.4455 150.024 45.2196 150.126 44.9548C148.812 43.0553 147.595 41.0975 146.476 39.0813C146.314 41.3404 146.152 43.5994 145.99 45.8584C145.503 46.4607 145.016 46.4607 144.53 45.8584C144.397 41.5471 144.478 37.3302 144.773 33.2078ZM49.8799 39.9849C51.3982 39.8295 52.7768 40.1306 54.0163 40.8885C55.8251 39.7209 57.6091 39.7209 59.3692 40.8885C59.6271 43.4657 59.4651 46.026 58.8826 48.5693C58.396 49.0211 57.9093 49.4729 57.4227 49.9247C57.246 52.9446 56.6782 55.8813 55.7195 58.7349C54.4547 59.0824 53.2382 59.0069 52.0698 58.509C51.4571 55.6658 50.9705 52.8041 50.6099 49.9247C49.1699 48.7509 48.5209 47.2446 48.6633 45.4066C48.3389 43.9006 48.3389 42.3946 48.6633 40.8885C49.1475 40.6329 49.5529 40.3316 49.8799 39.9849ZM154.019 53.5392C154.568 54.5006 154.65 55.5547 154.262 56.7018C153.038 55.8578 152.957 54.8033 154.019 53.5392ZM127.741 56.7018C133.666 56.4935 133.909 56.9453 128.471 58.0572C126.751 57.9285 126.507 57.4767 127.741 56.7018ZM109.736 59.4126C110.606 59.2839 111.417 59.4343 112.169 59.8645C111.234 60.38 110.261 60.4554 109.249 60.0904C109.519 59.9173 109.682 59.6914 109.736 59.4126ZM39.174 60.7681C46.3416 60.6813 46.5849 61.284 39.904 62.5753C39.174 62.4998 38.4441 62.4248 37.7141 62.3494C38.303 61.88 38.7896 61.3527 39.174 60.7681ZM32.8478 62.5753C33.2743 62.5161 33.5987 62.6666 33.8211 63.0271C32.6978 63.6474 32.3733 63.497 32.8478 62.5753ZM148.666 64.8343C149.652 64.7611 150.626 64.8366 151.586 65.0602C151.039 65.5319 150.391 65.8328 149.639 65.9639C148.314 66.0858 147.016 66.3117 145.746 66.6416C145.353 66.5024 145.028 66.2765 144.773 65.9639C146.14 65.6105 147.438 65.2337 148.666 64.8343Z" fill="#E7E7E7"/>
<path fill-rule="evenodd" clip-rule="evenodd" d="M121.415 35.4669C124.63 34.6758 125.846 35.73 125.064 38.6295C124.195 39.9224 123.06 40.2236 121.658 39.5331C121.416 38.186 121.334 36.8306 121.415 35.4669Z" fill="#E7E7E7"/>
<path fill-rule="evenodd" clip-rule="evenodd" d="M110.222 37.7259C111.003 38.0815 111.327 38.6839 111.195 39.5331C110.709 39.5331 110.222 39.5331 109.736 39.5331C109.703 38.8741 109.865 38.2716 110.222 37.7259Z" fill="#E7E7E7"/>
</svg>
